# xmcd
# 
# Track frame offsets:
#     150
#     11235
#     25058
#     45155
#     57665
#     65672
#     77238
#     86453
#     95850
#     107258
#     117612
#     129115
#     149890
#     158915
# 
# Disc length: 2366
# 
# Revision: 30
# Processed by: cddbd v1.5.2PL0 Copyright (c) Steve Scherf et al.
# Submitted via: fre:ac v1.0.27
# 
DISCID=c0093c0e
DTITLE=Joe Hisaishi - Castle in the Sky
DYEAR=1986
DGENRE=Soundtrack
TTITLE0=The Girl Who Fell From The Sky (Sora kara Futtekita Shojo)
TTITLE1=Morning in the Slag Ravine (Slag Keikoku no Asa)
TTITLE2=A Rowdy Brawl [- Pursuit] (Yukai na Kenka [- Tsuiseki])
TTITLE3=Memories of Gondoa (Gondoa no Omoide)
TTITLE4=Discouraged Pazu (Shitsui no Pazu)
TTITLE5=Robot Soldier [Resurrection - Rescue] (Robottohei [Fukkatsu - Kyushutsu])
TTITLE6=Carrying you - Chorus Version (Gassho Kimi wo Nosete)
TTITLE7=Sheeta's Decision (Sheeta no Ketsui)
TTITLE8=On the Tiger Moth (Tiger Moth Go Nite)
TTITLE9=An Omen to Ruin (Hametsu eno Yocho)
TTITLE10=A Sea of Clouds in the Moonlight (Gekko no Unkai)
TTITLE11=Castle in the Sky (Tenku no Shiro Rapyuta)
TTITLE12=Destruction of Laputa (Rapyuta no Hokai)
TTITLE13=Carrying You (Kimi wo Nosete)
EXTD=
EXTT0=
EXTT1=
EXTT2=
EXTT3=
EXTT4=
EXTT5=
EXTT6=
EXTT7=
EXTT8=
EXTT9=
EXTT10=
EXTT11=
EXTT12=
EXTT13=
PLAYORDER=
